<mxfile host="app.diagrams.net" modified="2024-04-20T09:31:23.590Z" agent="Mozilla/5.0 (Windows NT 10.0; Win64; x64; rv:123.0) Gecko/20100101 Firefox/123.0" etag="Ea0hWlvsXECqesm_u8js" version="24.2.5" type="device">
  <diagram name="Page-1" id="gZfDuVBHkDgIhecCWo7z">
    <mxGraphModel dx="1687" dy="2020" grid="1" gridSize="10" guides="1" tooltips="1" connect="1" arrows="1" fold="1" page="1" pageScale="1" pageWidth="850" pageHeight="1100" math="0" shadow="0">
      <root>
        <mxCell id="0" />
        <mxCell id="1" parent="0" />
        <mxCell id="JAzuHngS9V1_paTgyDR6-1" value="" style="rounded=0;whiteSpace=wrap;html=1;" parent="1" vertex="1">
          <mxGeometry y="-100" width="640" height="780" as="geometry" />
        </mxCell>
        <mxCell id="kZ0PJAbgCu0PceF8ISBT-32" value="" style="rounded=0;whiteSpace=wrap;html=1;fillColor=#ffe6cc;strokeColor=#d79b00;" vertex="1" parent="1">
          <mxGeometry x="9.5" y="-20" width="230.5" height="210" as="geometry" />
        </mxCell>
        <mxCell id="kZ0PJAbgCu0PceF8ISBT-31" value="" style="rounded=0;whiteSpace=wrap;html=1;fillColor=#e1d5e7;strokeColor=#9673a6;" vertex="1" parent="1">
          <mxGeometry x="270" y="-70" width="340" height="350" as="geometry" />
        </mxCell>
        <mxCell id="kZ0PJAbgCu0PceF8ISBT-30" value="" style="rounded=0;whiteSpace=wrap;html=1;fillColor=#dae8fc;strokeColor=#6c8ebf;" vertex="1" parent="1">
          <mxGeometry x="271" y="290" width="340" height="350" as="geometry" />
        </mxCell>
        <mxCell id="kZ0PJAbgCu0PceF8ISBT-29" value="" style="rounded=0;whiteSpace=wrap;html=1;fillColor=#f8cecc;strokeColor=#b85450;" vertex="1" parent="1">
          <mxGeometry x="9.5" y="260" width="250.5" height="380" as="geometry" />
        </mxCell>
        <mxCell id="JAzuHngS9V1_paTgyDR6-5" style="edgeStyle=orthogonalEdgeStyle;rounded=0;orthogonalLoop=1;jettySize=auto;html=1;exitX=0.5;exitY=1;exitDx=0;exitDy=0;exitPerimeter=0;endArrow=none;endFill=0;" parent="1" source="JAzuHngS9V1_paTgyDR6-2" target="JAzuHngS9V1_paTgyDR6-4" edge="1">
          <mxGeometry relative="1" as="geometry" />
        </mxCell>
        <mxCell id="JAzuHngS9V1_paTgyDR6-2" value="" style="shape=mxgraph.cisco.routers.router;sketch=0;html=1;pointerEvents=1;dashed=0;fillColor=#036897;strokeColor=#ffffff;strokeWidth=2;verticalLabelPosition=bottom;verticalAlign=top;align=center;outlineConnect=0;" parent="1" vertex="1">
          <mxGeometry x="21.5" y="562.5" width="78" height="53" as="geometry" />
        </mxCell>
        <mxCell id="JAzuHngS9V1_paTgyDR6-4" value="" style="ellipse;shape=cloud;whiteSpace=wrap;html=1;" parent="1" vertex="1">
          <mxGeometry y="690" width="120" height="80" as="geometry" />
        </mxCell>
        <mxCell id="a5JfMXmgzUQcUbvHWKY0-9" style="edgeStyle=orthogonalEdgeStyle;rounded=0;orthogonalLoop=1;jettySize=auto;html=1;exitX=0.5;exitY=0;exitDx=0;exitDy=0;exitPerimeter=0;endArrow=none;endFill=0;" parent="1" source="JAzuHngS9V1_paTgyDR6-7" target="a5JfMXmgzUQcUbvHWKY0-2" edge="1">
          <mxGeometry relative="1" as="geometry">
            <Array as="points">
              <mxPoint x="189" y="450" />
              <mxPoint x="43" y="450" />
            </Array>
          </mxGeometry>
        </mxCell>
        <mxCell id="JAzuHngS9V1_paTgyDR6-7" value="" style="shape=mxgraph.cisco.switches.mgx_8000_multiservice_switch;sketch=0;html=1;pointerEvents=1;dashed=0;fillColor=#036897;strokeColor=#ffffff;strokeWidth=2;verticalLabelPosition=bottom;verticalAlign=top;align=center;outlineConnect=0;" parent="1" vertex="1">
          <mxGeometry x="150" y="550" width="78" height="78" as="geometry" />
        </mxCell>
        <mxCell id="JAzuHngS9V1_paTgyDR6-8" value="" style="shape=mxgraph.cisco.switches.mgx_8000_multiservice_switch;sketch=0;html=1;pointerEvents=1;dashed=0;fillColor=#036897;strokeColor=#ffffff;strokeWidth=2;verticalLabelPosition=bottom;verticalAlign=top;align=center;outlineConnect=0;" parent="1" vertex="1">
          <mxGeometry x="401" y="425.5" width="78" height="78" as="geometry" />
        </mxCell>
        <mxCell id="JAzuHngS9V1_paTgyDR6-9" value="" style="shape=mxgraph.cisco.switches.mgx_8000_multiservice_switch;sketch=0;html=1;pointerEvents=1;dashed=0;fillColor=#036897;strokeColor=#ffffff;strokeWidth=2;verticalLabelPosition=bottom;verticalAlign=top;align=center;outlineConnect=0;" parent="1" vertex="1">
          <mxGeometry x="150" y="30" width="78" height="78" as="geometry" />
        </mxCell>
        <mxCell id="a5JfMXmgzUQcUbvHWKY0-1" value="" style="shape=mxgraph.cisco.computers_and_peripherals.pc;sketch=0;html=1;pointerEvents=1;dashed=0;fillColor=#036897;strokeColor=#ffffff;strokeWidth=2;verticalLabelPosition=bottom;verticalAlign=top;align=center;outlineConnect=0;" parent="1" vertex="1">
          <mxGeometry x="21" y="468" width="78" height="70" as="geometry" />
        </mxCell>
        <mxCell id="a5JfMXmgzUQcUbvHWKY0-2" value="" style="shape=mxgraph.cisco.servers.standard_host;sketch=0;html=1;pointerEvents=1;dashed=0;fillColor=#036897;strokeColor=#ffffff;strokeWidth=2;verticalLabelPosition=bottom;verticalAlign=top;align=center;outlineConnect=0;" parent="1" vertex="1">
          <mxGeometry x="21.5" y="360" width="43" height="62" as="geometry" />
        </mxCell>
        <mxCell id="a5JfMXmgzUQcUbvHWKY0-3" value="" style="shape=mxgraph.cisco.servers.standard_host;sketch=0;html=1;pointerEvents=1;dashed=0;fillColor=#036897;strokeColor=#ffffff;strokeWidth=2;verticalLabelPosition=bottom;verticalAlign=top;align=center;outlineConnect=0;" parent="1" vertex="1">
          <mxGeometry x="77" y="360" width="43" height="62" as="geometry" />
        </mxCell>
        <mxCell id="a5JfMXmgzUQcUbvHWKY0-4" value="" style="shape=mxgraph.cisco.servers.standard_host;sketch=0;html=1;pointerEvents=1;dashed=0;fillColor=#036897;strokeColor=#ffffff;strokeWidth=2;verticalLabelPosition=bottom;verticalAlign=top;align=center;outlineConnect=0;" parent="1" vertex="1">
          <mxGeometry x="130" y="360" width="43" height="62" as="geometry" />
        </mxCell>
        <mxCell id="a5JfMXmgzUQcUbvHWKY0-5" value="" style="shape=mxgraph.cisco.wireless.wlan_controller;sketch=0;html=1;pointerEvents=1;dashed=0;fillColor=#036897;strokeColor=#ffffff;strokeWidth=2;verticalLabelPosition=bottom;verticalAlign=top;align=center;outlineConnect=0;" parent="1" vertex="1">
          <mxGeometry x="19" y="280" width="101" height="56" as="geometry" />
        </mxCell>
        <mxCell id="a5JfMXmgzUQcUbvHWKY0-6" style="edgeStyle=orthogonalEdgeStyle;rounded=0;orthogonalLoop=1;jettySize=auto;html=1;exitX=1;exitY=0.5;exitDx=0;exitDy=0;exitPerimeter=0;entryX=0;entryY=0.5;entryDx=0;entryDy=0;entryPerimeter=0;endArrow=none;endFill=0;" parent="1" source="JAzuHngS9V1_paTgyDR6-2" target="JAzuHngS9V1_paTgyDR6-7" edge="1">
          <mxGeometry relative="1" as="geometry" />
        </mxCell>
        <mxCell id="a5JfMXmgzUQcUbvHWKY0-7" style="edgeStyle=orthogonalEdgeStyle;rounded=0;orthogonalLoop=1;jettySize=auto;html=1;exitX=0.5;exitY=0;exitDx=0;exitDy=0;exitPerimeter=0;entryX=0.5;entryY=1;entryDx=0;entryDy=0;entryPerimeter=0;endArrow=none;endFill=0;" parent="1" source="JAzuHngS9V1_paTgyDR6-7" target="a5JfMXmgzUQcUbvHWKY0-4" edge="1">
          <mxGeometry relative="1" as="geometry">
            <Array as="points">
              <mxPoint x="189" y="450" />
              <mxPoint x="152" y="450" />
            </Array>
          </mxGeometry>
        </mxCell>
        <mxCell id="a5JfMXmgzUQcUbvHWKY0-8" style="edgeStyle=orthogonalEdgeStyle;rounded=0;orthogonalLoop=1;jettySize=auto;html=1;exitX=0.5;exitY=0;exitDx=0;exitDy=0;exitPerimeter=0;entryX=0.5;entryY=1;entryDx=0;entryDy=0;entryPerimeter=0;endArrow=none;endFill=0;" parent="1" source="JAzuHngS9V1_paTgyDR6-7" target="a5JfMXmgzUQcUbvHWKY0-3" edge="1">
          <mxGeometry relative="1" as="geometry">
            <Array as="points">
              <mxPoint x="189" y="450" />
              <mxPoint x="99" y="450" />
            </Array>
          </mxGeometry>
        </mxCell>
        <mxCell id="a5JfMXmgzUQcUbvHWKY0-10" style="edgeStyle=orthogonalEdgeStyle;rounded=0;orthogonalLoop=1;jettySize=auto;html=1;exitX=0.12;exitY=0.07;exitDx=0;exitDy=0;exitPerimeter=0;endArrow=none;endFill=0;" parent="1" source="JAzuHngS9V1_paTgyDR6-7" target="a5JfMXmgzUQcUbvHWKY0-1" edge="1">
          <mxGeometry relative="1" as="geometry">
            <Array as="points">
              <mxPoint x="159" y="500" />
            </Array>
          </mxGeometry>
        </mxCell>
        <mxCell id="a5JfMXmgzUQcUbvHWKY0-11" style="edgeStyle=orthogonalEdgeStyle;rounded=0;orthogonalLoop=1;jettySize=auto;html=1;exitX=0.88;exitY=0.07;exitDx=0;exitDy=0;exitPerimeter=0;entryX=1;entryY=0.5;entryDx=0;entryDy=0;entryPerimeter=0;endArrow=none;endFill=0;" parent="1" source="JAzuHngS9V1_paTgyDR6-7" target="a5JfMXmgzUQcUbvHWKY0-5" edge="1">
          <mxGeometry relative="1" as="geometry">
            <Array as="points">
              <mxPoint x="220" y="556" />
              <mxPoint x="220" y="308" />
            </Array>
          </mxGeometry>
        </mxCell>
        <mxCell id="a5JfMXmgzUQcUbvHWKY0-17" value="" style="shape=mxgraph.cisco.computers_and_peripherals.pc;sketch=0;html=1;pointerEvents=1;dashed=0;fillColor=#036897;strokeColor=#ffffff;strokeWidth=2;verticalLabelPosition=bottom;verticalAlign=top;align=center;outlineConnect=0;" parent="1" vertex="1">
          <mxGeometry x="523" y="382.5" width="78" height="70" as="geometry" />
        </mxCell>
        <mxCell id="a5JfMXmgzUQcUbvHWKY0-18" value="" style="shape=mxgraph.cisco.computers_and_peripherals.pc;sketch=0;html=1;pointerEvents=1;dashed=0;fillColor=#036897;strokeColor=#ffffff;strokeWidth=2;verticalLabelPosition=bottom;verticalAlign=top;align=center;outlineConnect=0;" parent="1" vertex="1">
          <mxGeometry x="523" y="295.5" width="78" height="70" as="geometry" />
        </mxCell>
        <mxCell id="a5JfMXmgzUQcUbvHWKY0-19" value="" style="shape=mxgraph.cisco.computers_and_peripherals.pc;sketch=0;html=1;pointerEvents=1;dashed=0;fillColor=#036897;strokeColor=#ffffff;strokeWidth=2;verticalLabelPosition=bottom;verticalAlign=top;align=center;outlineConnect=0;" parent="1" vertex="1">
          <mxGeometry x="523" y="558" width="78" height="70" as="geometry" />
        </mxCell>
        <mxCell id="a5JfMXmgzUQcUbvHWKY0-20" value="" style="shape=mxgraph.cisco.computers_and_peripherals.pc;sketch=0;html=1;pointerEvents=1;dashed=0;fillColor=#036897;strokeColor=#ffffff;strokeWidth=2;verticalLabelPosition=bottom;verticalAlign=top;align=center;outlineConnect=0;" parent="1" vertex="1">
          <mxGeometry x="523" y="471" width="78" height="70" as="geometry" />
        </mxCell>
        <mxCell id="a5JfMXmgzUQcUbvHWKY0-21" style="edgeStyle=orthogonalEdgeStyle;rounded=0;orthogonalLoop=1;jettySize=auto;html=1;exitX=1;exitY=0.5;exitDx=0;exitDy=0;exitPerimeter=0;entryX=0.16;entryY=0.5;entryDx=0;entryDy=0;entryPerimeter=0;endArrow=none;endFill=0;" parent="1" source="JAzuHngS9V1_paTgyDR6-8" target="a5JfMXmgzUQcUbvHWKY0-18" edge="1">
          <mxGeometry relative="1" as="geometry">
            <Array as="points">
              <mxPoint x="501" y="465" />
              <mxPoint x="501" y="331" />
            </Array>
          </mxGeometry>
        </mxCell>
        <mxCell id="a5JfMXmgzUQcUbvHWKY0-24" style="edgeStyle=orthogonalEdgeStyle;rounded=0;orthogonalLoop=1;jettySize=auto;html=1;exitX=1;exitY=0.5;exitDx=0;exitDy=0;exitPerimeter=0;entryX=0.16;entryY=0.5;entryDx=0;entryDy=0;entryPerimeter=0;endArrow=none;endFill=0;" parent="1" source="JAzuHngS9V1_paTgyDR6-8" target="a5JfMXmgzUQcUbvHWKY0-17" edge="1">
          <mxGeometry relative="1" as="geometry" />
        </mxCell>
        <mxCell id="a5JfMXmgzUQcUbvHWKY0-25" style="edgeStyle=orthogonalEdgeStyle;rounded=0;orthogonalLoop=1;jettySize=auto;html=1;exitX=1;exitY=0.5;exitDx=0;exitDy=0;exitPerimeter=0;entryX=0.16;entryY=0.5;entryDx=0;entryDy=0;entryPerimeter=0;endArrow=none;endFill=0;" parent="1" source="JAzuHngS9V1_paTgyDR6-8" target="a5JfMXmgzUQcUbvHWKY0-20" edge="1">
          <mxGeometry relative="1" as="geometry" />
        </mxCell>
        <mxCell id="a5JfMXmgzUQcUbvHWKY0-26" style="edgeStyle=orthogonalEdgeStyle;rounded=0;orthogonalLoop=1;jettySize=auto;html=1;exitX=1;exitY=0.5;exitDx=0;exitDy=0;exitPerimeter=0;entryX=0.16;entryY=0.5;entryDx=0;entryDy=0;entryPerimeter=0;endArrow=none;endFill=0;" parent="1" source="JAzuHngS9V1_paTgyDR6-8" target="a5JfMXmgzUQcUbvHWKY0-19" edge="1">
          <mxGeometry relative="1" as="geometry">
            <Array as="points">
              <mxPoint x="501" y="465" />
              <mxPoint x="501" y="593" />
            </Array>
          </mxGeometry>
        </mxCell>
        <mxCell id="a5JfMXmgzUQcUbvHWKY0-27" value="" style="shape=mxgraph.cisco.computers_and_peripherals.pc;sketch=0;html=1;pointerEvents=1;dashed=0;fillColor=#036897;strokeColor=#ffffff;strokeWidth=2;verticalLabelPosition=bottom;verticalAlign=top;align=center;outlineConnect=0;" parent="1" vertex="1">
          <mxGeometry x="281" y="382.5" width="78" height="70" as="geometry" />
        </mxCell>
        <mxCell id="a5JfMXmgzUQcUbvHWKY0-28" value="" style="shape=mxgraph.cisco.computers_and_peripherals.pc;sketch=0;html=1;pointerEvents=1;dashed=0;fillColor=#036897;strokeColor=#ffffff;strokeWidth=2;verticalLabelPosition=bottom;verticalAlign=top;align=center;outlineConnect=0;" parent="1" vertex="1">
          <mxGeometry x="281" y="295.5" width="78" height="70" as="geometry" />
        </mxCell>
        <mxCell id="a5JfMXmgzUQcUbvHWKY0-29" value="" style="shape=mxgraph.cisco.computers_and_peripherals.pc;sketch=0;html=1;pointerEvents=1;dashed=0;fillColor=#036897;strokeColor=#ffffff;strokeWidth=2;verticalLabelPosition=bottom;verticalAlign=top;align=center;outlineConnect=0;" parent="1" vertex="1">
          <mxGeometry x="281" y="558" width="78" height="70" as="geometry" />
        </mxCell>
        <mxCell id="a5JfMXmgzUQcUbvHWKY0-30" value="" style="shape=mxgraph.cisco.computers_and_peripherals.pc;sketch=0;html=1;pointerEvents=1;dashed=0;fillColor=#036897;strokeColor=#ffffff;strokeWidth=2;verticalLabelPosition=bottom;verticalAlign=top;align=center;outlineConnect=0;" parent="1" vertex="1">
          <mxGeometry x="281" y="471" width="78" height="70" as="geometry" />
        </mxCell>
        <mxCell id="a5JfMXmgzUQcUbvHWKY0-35" style="edgeStyle=orthogonalEdgeStyle;rounded=0;orthogonalLoop=1;jettySize=auto;html=1;exitX=0;exitY=0.5;exitDx=0;exitDy=0;exitPerimeter=0;entryX=0.83;entryY=0.5;entryDx=0;entryDy=0;entryPerimeter=0;endArrow=none;endFill=0;" parent="1" source="JAzuHngS9V1_paTgyDR6-8" target="a5JfMXmgzUQcUbvHWKY0-28" edge="1">
          <mxGeometry relative="1" as="geometry">
            <Array as="points">
              <mxPoint x="381" y="464.5" />
              <mxPoint x="381" y="330.5" />
            </Array>
          </mxGeometry>
        </mxCell>
        <mxCell id="a5JfMXmgzUQcUbvHWKY0-36" style="edgeStyle=orthogonalEdgeStyle;rounded=0;orthogonalLoop=1;jettySize=auto;html=1;exitX=0;exitY=0.5;exitDx=0;exitDy=0;exitPerimeter=0;entryX=0.83;entryY=0.5;entryDx=0;entryDy=0;entryPerimeter=0;endArrow=none;endFill=0;" parent="1" source="JAzuHngS9V1_paTgyDR6-8" target="a5JfMXmgzUQcUbvHWKY0-27" edge="1">
          <mxGeometry relative="1" as="geometry" />
        </mxCell>
        <mxCell id="a5JfMXmgzUQcUbvHWKY0-37" style="edgeStyle=orthogonalEdgeStyle;rounded=0;orthogonalLoop=1;jettySize=auto;html=1;exitX=0;exitY=0.5;exitDx=0;exitDy=0;exitPerimeter=0;entryX=0.83;entryY=0.5;entryDx=0;entryDy=0;entryPerimeter=0;endArrow=none;endFill=0;" parent="1" source="JAzuHngS9V1_paTgyDR6-8" target="a5JfMXmgzUQcUbvHWKY0-30" edge="1">
          <mxGeometry relative="1" as="geometry" />
        </mxCell>
        <mxCell id="a5JfMXmgzUQcUbvHWKY0-38" style="edgeStyle=orthogonalEdgeStyle;rounded=0;orthogonalLoop=1;jettySize=auto;html=1;exitX=0;exitY=0.5;exitDx=0;exitDy=0;exitPerimeter=0;entryX=0.83;entryY=0.5;entryDx=0;entryDy=0;entryPerimeter=0;endArrow=none;endFill=0;" parent="1" source="JAzuHngS9V1_paTgyDR6-8" target="a5JfMXmgzUQcUbvHWKY0-29" edge="1">
          <mxGeometry relative="1" as="geometry">
            <Array as="points">
              <mxPoint x="381" y="464.5" />
              <mxPoint x="381" y="593.5" />
            </Array>
          </mxGeometry>
        </mxCell>
        <mxCell id="kZ0PJAbgCu0PceF8ISBT-1" value="" style="shape=mxgraph.cisco.computers_and_peripherals.pc;sketch=0;html=1;pointerEvents=1;dashed=0;fillColor=#036897;strokeColor=#ffffff;strokeWidth=2;verticalLabelPosition=bottom;verticalAlign=top;align=center;outlineConnect=0;" vertex="1" parent="1">
          <mxGeometry x="21.5" y="34" width="78" height="70" as="geometry" />
        </mxCell>
        <mxCell id="kZ0PJAbgCu0PceF8ISBT-2" value="" style="shape=mxgraph.cisco.computers_and_peripherals.pc;sketch=0;html=1;pointerEvents=1;dashed=0;fillColor=#036897;strokeColor=#ffffff;strokeWidth=2;verticalLabelPosition=bottom;verticalAlign=top;align=center;outlineConnect=0;" vertex="1" parent="1">
          <mxGeometry x="21.5" y="117" width="78" height="70" as="geometry" />
        </mxCell>
        <mxCell id="kZ0PJAbgCu0PceF8ISBT-4" style="edgeStyle=orthogonalEdgeStyle;rounded=0;orthogonalLoop=1;jettySize=auto;html=1;exitX=0;exitY=0.5;exitDx=0;exitDy=0;exitPerimeter=0;entryX=0.83;entryY=0.5;entryDx=0;entryDy=0;entryPerimeter=0;endArrow=none;endFill=0;" edge="1" parent="1" source="JAzuHngS9V1_paTgyDR6-9" target="kZ0PJAbgCu0PceF8ISBT-1">
          <mxGeometry relative="1" as="geometry" />
        </mxCell>
        <mxCell id="kZ0PJAbgCu0PceF8ISBT-5" style="edgeStyle=orthogonalEdgeStyle;rounded=0;orthogonalLoop=1;jettySize=auto;html=1;exitX=0;exitY=0.5;exitDx=0;exitDy=0;exitPerimeter=0;entryX=0.83;entryY=0.5;entryDx=0;entryDy=0;entryPerimeter=0;endArrow=none;endFill=0;" edge="1" parent="1" source="JAzuHngS9V1_paTgyDR6-9" target="kZ0PJAbgCu0PceF8ISBT-2">
          <mxGeometry relative="1" as="geometry">
            <Array as="points">
              <mxPoint x="111.5" y="69" />
              <mxPoint x="111.5" y="152" />
            </Array>
          </mxGeometry>
        </mxCell>
        <mxCell id="kZ0PJAbgCu0PceF8ISBT-8" value="" style="shape=mxgraph.cisco.switches.mgx_8000_multiservice_switch;sketch=0;html=1;pointerEvents=1;dashed=0;fillColor=#036897;strokeColor=#ffffff;strokeWidth=2;verticalLabelPosition=bottom;verticalAlign=top;align=center;outlineConnect=0;" vertex="1" parent="1">
          <mxGeometry x="401" y="68.75" width="78" height="78" as="geometry" />
        </mxCell>
        <mxCell id="kZ0PJAbgCu0PceF8ISBT-9" value="" style="shape=mxgraph.cisco.computers_and_peripherals.pc;sketch=0;html=1;pointerEvents=1;dashed=0;fillColor=#036897;strokeColor=#ffffff;strokeWidth=2;verticalLabelPosition=bottom;verticalAlign=top;align=center;outlineConnect=0;" vertex="1" parent="1">
          <mxGeometry x="523" y="25.75" width="78" height="70" as="geometry" />
        </mxCell>
        <mxCell id="kZ0PJAbgCu0PceF8ISBT-10" value="" style="shape=mxgraph.cisco.computers_and_peripherals.pc;sketch=0;html=1;pointerEvents=1;dashed=0;fillColor=#036897;strokeColor=#ffffff;strokeWidth=2;verticalLabelPosition=bottom;verticalAlign=top;align=center;outlineConnect=0;" vertex="1" parent="1">
          <mxGeometry x="523" y="-61.25" width="78" height="70" as="geometry" />
        </mxCell>
        <mxCell id="kZ0PJAbgCu0PceF8ISBT-11" value="" style="shape=mxgraph.cisco.computers_and_peripherals.pc;sketch=0;html=1;pointerEvents=1;dashed=0;fillColor=#036897;strokeColor=#ffffff;strokeWidth=2;verticalLabelPosition=bottom;verticalAlign=top;align=center;outlineConnect=0;" vertex="1" parent="1">
          <mxGeometry x="523" y="201.25" width="78" height="70" as="geometry" />
        </mxCell>
        <mxCell id="kZ0PJAbgCu0PceF8ISBT-12" value="" style="shape=mxgraph.cisco.computers_and_peripherals.pc;sketch=0;html=1;pointerEvents=1;dashed=0;fillColor=#036897;strokeColor=#ffffff;strokeWidth=2;verticalLabelPosition=bottom;verticalAlign=top;align=center;outlineConnect=0;" vertex="1" parent="1">
          <mxGeometry x="523" y="114.25" width="78" height="70" as="geometry" />
        </mxCell>
        <mxCell id="kZ0PJAbgCu0PceF8ISBT-13" style="edgeStyle=orthogonalEdgeStyle;rounded=0;orthogonalLoop=1;jettySize=auto;html=1;exitX=1;exitY=0.5;exitDx=0;exitDy=0;exitPerimeter=0;entryX=0.16;entryY=0.5;entryDx=0;entryDy=0;entryPerimeter=0;endArrow=none;endFill=0;" edge="1" source="kZ0PJAbgCu0PceF8ISBT-8" target="kZ0PJAbgCu0PceF8ISBT-10" parent="1">
          <mxGeometry relative="1" as="geometry">
            <Array as="points">
              <mxPoint x="501" y="108.25" />
              <mxPoint x="501" y="-25.75" />
            </Array>
          </mxGeometry>
        </mxCell>
        <mxCell id="kZ0PJAbgCu0PceF8ISBT-14" style="edgeStyle=orthogonalEdgeStyle;rounded=0;orthogonalLoop=1;jettySize=auto;html=1;exitX=1;exitY=0.5;exitDx=0;exitDy=0;exitPerimeter=0;entryX=0.16;entryY=0.5;entryDx=0;entryDy=0;entryPerimeter=0;endArrow=none;endFill=0;" edge="1" source="kZ0PJAbgCu0PceF8ISBT-8" target="kZ0PJAbgCu0PceF8ISBT-9" parent="1">
          <mxGeometry relative="1" as="geometry" />
        </mxCell>
        <mxCell id="kZ0PJAbgCu0PceF8ISBT-15" style="edgeStyle=orthogonalEdgeStyle;rounded=0;orthogonalLoop=1;jettySize=auto;html=1;exitX=1;exitY=0.5;exitDx=0;exitDy=0;exitPerimeter=0;entryX=0.16;entryY=0.5;entryDx=0;entryDy=0;entryPerimeter=0;endArrow=none;endFill=0;" edge="1" source="kZ0PJAbgCu0PceF8ISBT-8" target="kZ0PJAbgCu0PceF8ISBT-12" parent="1">
          <mxGeometry relative="1" as="geometry" />
        </mxCell>
        <mxCell id="kZ0PJAbgCu0PceF8ISBT-16" style="edgeStyle=orthogonalEdgeStyle;rounded=0;orthogonalLoop=1;jettySize=auto;html=1;exitX=1;exitY=0.5;exitDx=0;exitDy=0;exitPerimeter=0;entryX=0.16;entryY=0.5;entryDx=0;entryDy=0;entryPerimeter=0;endArrow=none;endFill=0;" edge="1" source="kZ0PJAbgCu0PceF8ISBT-8" target="kZ0PJAbgCu0PceF8ISBT-11" parent="1">
          <mxGeometry relative="1" as="geometry">
            <Array as="points">
              <mxPoint x="501" y="108" />
              <mxPoint x="501" y="236" />
            </Array>
          </mxGeometry>
        </mxCell>
        <mxCell id="kZ0PJAbgCu0PceF8ISBT-17" value="" style="shape=mxgraph.cisco.computers_and_peripherals.pc;sketch=0;html=1;pointerEvents=1;dashed=0;fillColor=#036897;strokeColor=#ffffff;strokeWidth=2;verticalLabelPosition=bottom;verticalAlign=top;align=center;outlineConnect=0;" vertex="1" parent="1">
          <mxGeometry x="281" y="25.75" width="78" height="70" as="geometry" />
        </mxCell>
        <mxCell id="kZ0PJAbgCu0PceF8ISBT-18" value="" style="shape=mxgraph.cisco.computers_and_peripherals.pc;sketch=0;html=1;pointerEvents=1;dashed=0;fillColor=#036897;strokeColor=#ffffff;strokeWidth=2;verticalLabelPosition=bottom;verticalAlign=top;align=center;outlineConnect=0;" vertex="1" parent="1">
          <mxGeometry x="281" y="-61.25" width="78" height="70" as="geometry" />
        </mxCell>
        <mxCell id="kZ0PJAbgCu0PceF8ISBT-19" value="" style="shape=mxgraph.cisco.computers_and_peripherals.pc;sketch=0;html=1;pointerEvents=1;dashed=0;fillColor=#036897;strokeColor=#ffffff;strokeWidth=2;verticalLabelPosition=bottom;verticalAlign=top;align=center;outlineConnect=0;" vertex="1" parent="1">
          <mxGeometry x="281" y="201.25" width="78" height="70" as="geometry" />
        </mxCell>
        <mxCell id="kZ0PJAbgCu0PceF8ISBT-20" value="" style="shape=mxgraph.cisco.computers_and_peripherals.pc;sketch=0;html=1;pointerEvents=1;dashed=0;fillColor=#036897;strokeColor=#ffffff;strokeWidth=2;verticalLabelPosition=bottom;verticalAlign=top;align=center;outlineConnect=0;" vertex="1" parent="1">
          <mxGeometry x="281" y="114.25" width="78" height="70" as="geometry" />
        </mxCell>
        <mxCell id="kZ0PJAbgCu0PceF8ISBT-21" style="edgeStyle=orthogonalEdgeStyle;rounded=0;orthogonalLoop=1;jettySize=auto;html=1;exitX=0;exitY=0.5;exitDx=0;exitDy=0;exitPerimeter=0;entryX=0.83;entryY=0.5;entryDx=0;entryDy=0;entryPerimeter=0;endArrow=none;endFill=0;" edge="1" source="kZ0PJAbgCu0PceF8ISBT-8" target="kZ0PJAbgCu0PceF8ISBT-18" parent="1">
          <mxGeometry relative="1" as="geometry">
            <Array as="points">
              <mxPoint x="381" y="107.75" />
              <mxPoint x="381" y="-26.25" />
            </Array>
          </mxGeometry>
        </mxCell>
        <mxCell id="kZ0PJAbgCu0PceF8ISBT-22" style="edgeStyle=orthogonalEdgeStyle;rounded=0;orthogonalLoop=1;jettySize=auto;html=1;exitX=0;exitY=0.5;exitDx=0;exitDy=0;exitPerimeter=0;entryX=0.83;entryY=0.5;entryDx=0;entryDy=0;entryPerimeter=0;endArrow=none;endFill=0;" edge="1" source="kZ0PJAbgCu0PceF8ISBT-8" target="kZ0PJAbgCu0PceF8ISBT-17" parent="1">
          <mxGeometry relative="1" as="geometry" />
        </mxCell>
        <mxCell id="kZ0PJAbgCu0PceF8ISBT-23" style="edgeStyle=orthogonalEdgeStyle;rounded=0;orthogonalLoop=1;jettySize=auto;html=1;exitX=0;exitY=0.5;exitDx=0;exitDy=0;exitPerimeter=0;entryX=0.83;entryY=0.5;entryDx=0;entryDy=0;entryPerimeter=0;endArrow=none;endFill=0;" edge="1" source="kZ0PJAbgCu0PceF8ISBT-8" target="kZ0PJAbgCu0PceF8ISBT-20" parent="1">
          <mxGeometry relative="1" as="geometry" />
        </mxCell>
        <mxCell id="kZ0PJAbgCu0PceF8ISBT-24" style="edgeStyle=orthogonalEdgeStyle;rounded=0;orthogonalLoop=1;jettySize=auto;html=1;exitX=0;exitY=0.5;exitDx=0;exitDy=0;exitPerimeter=0;entryX=0.83;entryY=0.5;entryDx=0;entryDy=0;entryPerimeter=0;endArrow=none;endFill=0;" edge="1" source="kZ0PJAbgCu0PceF8ISBT-8" target="kZ0PJAbgCu0PceF8ISBT-19" parent="1">
          <mxGeometry relative="1" as="geometry">
            <Array as="points">
              <mxPoint x="381" y="107.75" />
              <mxPoint x="381" y="236.75" />
            </Array>
          </mxGeometry>
        </mxCell>
        <mxCell id="kZ0PJAbgCu0PceF8ISBT-25" style="edgeStyle=orthogonalEdgeStyle;rounded=0;orthogonalLoop=1;jettySize=auto;html=1;entryX=0.5;entryY=1;entryDx=0;entryDy=0;entryPerimeter=0;exitX=0.88;exitY=0.93;exitDx=0;exitDy=0;exitPerimeter=0;endArrow=none;endFill=0;fillColor=#dae8fc;strokeColor=#6c8ebf;strokeWidth=2;" edge="1" parent="1" source="JAzuHngS9V1_paTgyDR6-7" target="JAzuHngS9V1_paTgyDR6-8">
          <mxGeometry relative="1" as="geometry">
            <mxPoint x="370" y="750" as="sourcePoint" />
            <Array as="points">
              <mxPoint x="219" y="650" />
              <mxPoint x="440" y="650" />
            </Array>
          </mxGeometry>
        </mxCell>
        <mxCell id="kZ0PJAbgCu0PceF8ISBT-26" style="edgeStyle=orthogonalEdgeStyle;rounded=0;orthogonalLoop=1;jettySize=auto;html=1;exitX=0.5;exitY=1;exitDx=0;exitDy=0;exitPerimeter=0;entryX=0.5;entryY=0;entryDx=0;entryDy=0;entryPerimeter=0;endArrow=none;endFill=0;fillColor=#e1d5e7;strokeColor=#9673a6;strokeWidth=2;" edge="1" parent="1" source="JAzuHngS9V1_paTgyDR6-7" target="kZ0PJAbgCu0PceF8ISBT-8">
          <mxGeometry relative="1" as="geometry">
            <Array as="points">
              <mxPoint x="189" y="660" />
              <mxPoint x="620" y="660" />
              <mxPoint x="620" y="-80" />
              <mxPoint x="440" y="-80" />
            </Array>
          </mxGeometry>
        </mxCell>
        <mxCell id="kZ0PJAbgCu0PceF8ISBT-27" style="edgeStyle=orthogonalEdgeStyle;rounded=0;orthogonalLoop=1;jettySize=auto;html=1;exitX=0.12;exitY=0.93;exitDx=0;exitDy=0;exitPerimeter=0;entryX=0.5;entryY=0;entryDx=0;entryDy=0;entryPerimeter=0;endArrow=none;endFill=0;fillColor=#ffe6cc;strokeColor=#d79b00;" edge="1" parent="1" source="JAzuHngS9V1_paTgyDR6-7" target="JAzuHngS9V1_paTgyDR6-9">
          <mxGeometry relative="1" as="geometry">
            <Array as="points">
              <mxPoint x="159" y="670" />
              <mxPoint x="630" y="670" />
              <mxPoint x="630" y="-90" />
              <mxPoint x="189" y="-90" />
            </Array>
          </mxGeometry>
        </mxCell>
        <mxCell id="kZ0PJAbgCu0PceF8ISBT-33" value="" style="shape=mxgraph.cisco.wireless.wireless_transport;sketch=0;html=1;pointerEvents=1;dashed=0;fillColor=#036897;strokeColor=#ffffff;strokeWidth=2;verticalLabelPosition=bottom;verticalAlign=top;align=center;outlineConnect=0;" vertex="1" parent="1">
          <mxGeometry x="150" y="125" width="77" height="54" as="geometry" />
        </mxCell>
        <mxCell id="kZ0PJAbgCu0PceF8ISBT-34" style="edgeStyle=orthogonalEdgeStyle;rounded=0;orthogonalLoop=1;jettySize=auto;html=1;exitX=0.5;exitY=1;exitDx=0;exitDy=0;exitPerimeter=0;entryX=0.5;entryY=0;entryDx=0;entryDy=0;entryPerimeter=0;endArrow=none;endFill=0;" edge="1" parent="1" source="JAzuHngS9V1_paTgyDR6-9" target="kZ0PJAbgCu0PceF8ISBT-33">
          <mxGeometry relative="1" as="geometry" />
        </mxCell>
        <mxCell id="kZ0PJAbgCu0PceF8ISBT-35" value="&lt;font style=&quot;font-size: 16px;&quot;&gt;Серверная&lt;/font&gt;" style="text;html=1;align=center;verticalAlign=middle;resizable=0;points=[];autosize=1;strokeColor=none;fillColor=none;" vertex="1" parent="1">
          <mxGeometry x="130" y="271.25" width="110" height="30" as="geometry" />
        </mxCell>
        <mxCell id="kZ0PJAbgCu0PceF8ISBT-36" value="&lt;font style=&quot;font-size: 16px;&quot;&gt;Игровой зал&lt;/font&gt;" style="text;html=1;align=center;verticalAlign=middle;resizable=0;points=[];autosize=1;strokeColor=none;fillColor=none;" vertex="1" parent="1">
          <mxGeometry x="386" y="295.5" width="110" height="30" as="geometry" />
        </mxCell>
        <mxCell id="kZ0PJAbgCu0PceF8ISBT-37" value="&lt;font style=&quot;font-size: 16px;&quot;&gt;Соревновательный &lt;br&gt;зал&lt;br&gt;&lt;/font&gt;" style="text;html=1;align=center;verticalAlign=middle;resizable=0;points=[];autosize=1;strokeColor=none;fillColor=none;" vertex="1" parent="1">
          <mxGeometry x="355" y="230" width="170" height="50" as="geometry" />
        </mxCell>
        <mxCell id="kZ0PJAbgCu0PceF8ISBT-38" value="&lt;font style=&quot;font-size: 16px;&quot;&gt;Кабинет &lt;br&gt;администраторов&lt;br&gt;&lt;/font&gt;" style="text;html=1;align=center;verticalAlign=middle;resizable=0;points=[];autosize=1;strokeColor=none;fillColor=none;" vertex="1" parent="1">
          <mxGeometry x="40" y="-24.25" width="150" height="50" as="geometry" />
        </mxCell>
      </root>
    </mxGraphModel>
  </diagram>
</mxfile>
